Coordinates
version=1
nRows=23
nColumns=28
inDegrees=yes

Units are S.I. units (second, meters, Newtons, ...)
Angles are in degrees.

endheader
time	pelvis_tilt	pelvis_list	pelvis_rotation	pelvis_tx	pelvis_ty	pelvis_tz	hip_flexion_r	hip_adduction_r	hip_rotation_r	knee_angle_r	ankle_angle_r	subtalar_angle_r	mtp_angle_r	hip_flexion_l	hip_adduction_l	hip_rotation_l	knee_angle_l	socket_flexion	socket_adduction	socket_rotation	socket_tx	socket_ty	socket_tz	foot_flex	lumbar_extension	lumbar_bending	lumbar_rotation
      0.62500000	      0.37805899	     -5.03385845	      6.10547879	     -0.00757746	      0.98981691	      0.26023693	     22.80562279	      5.19811387	     -7.94729108	     -4.32558087	     18.37222804	    -16.92462658	    -19.99116829	    -24.81394483	     -9.66094651	     -3.29497067	      3.72473976	      4.95479728	      5.37738268	     21.19553844	      0.00000000	      0.00412174	      0.00000000	      7.98420263	     -9.85073456	      5.90575959	     -4.01667018
      0.62916667	      0.07028746	     -4.98532587	      6.14808794	     -0.00751418	      0.98939561	      0.26013562	     23.25819256	      5.05489872	     -8.29362538	     -4.58391726	     18.21565801	    -16.72971582	    -18.70177260	    -24.23777278	     -9.60787840	     -3.36965303	      3.06229871	      4.58712867	      5.21170049	     21.37955340	      0.00000000	      0.00381491	      0.00000000	      7.99161896	     -9.46489643	      5.86346640	     -4.39971782
      0.63333333	      0.37425922	     -5.14860641	      6.14803955	     -0.00089690	      0.98863429	      0.26037702	     23.11243103	      5.31186516	     -8.14946678	     -5.23749572	     16.17336906	    -17.38162028	    -12.31993223	    -25.01632811	     -9.80088509	     -3.51211973	      3.38544630	      4.98572808	      5.33188865	     21.29523599	      0.00000000	      0.00406403	      0.00000000	      7.94388764	     -9.74121750	      6.14842797	     -4.14616926
      0.63750000	      0.42044348	     -5.24241057	      6.28221957	      0.00548999	      0.98773131	      0.26055030	     23.23278120	      5.42601308	     -7.89695681	     -5.98128339	     15.89414829	    -17.36280519	    -12.34370013	    -25.23388851	     -9.98634674	     -3.41957890	      3.15077598	      5.12473766	      5.33303680	     21.31827547	      0.00000000	      0.00408217	      0.00000000	      7.86431794	     -9.73099366	      6.35614231	     -4.16870625
      0.64166667	      0.49521621	     -5.40680258	      6.23282186	      0.01183658	      0.98676296	      0.26098064	     23.52579289	      5.65474074	     -7.86564907	     -7.09130201	     15.40326225	    -17.49775788	    -12.33338243	    -25.49595674	    -10.15803390	     -3.55484105	      2.79299207	      5.20317373	      5.30929352	     21.17412267	      0.00000000	      0.00390146	      0.00000000	      7.74875056	     -9.76551194	      6.64099948	     -4.23073338
      0.64583333	      0.53582943	     -5.57161095	      6.24312676	      0.01825310	      0.98583298	      0.26132881	     23.77610444	      5.86555576	     -7.75183921	     -8.07458013	     14.93457994	    -17.59454880	    -12.23289527	    -25.68163338	    -10.35477473	     -3.66101757	      2.41051913	      5.29761462	      5.28224139	     21.15848756	      0.00000000	      0.00373954	      0.00000000	      7.62867252	     -9.74540288	      6.92011425	     -4.24197638
      0.65000000	      0.54738749	     -5.75273995	      6.23829472	      0.02470100	      0.98486959	      0.26174270	     24.05718385	      6.09605497	     -7.62893320	     -9.06523967	     14.39718538	    -17.72132980	    -11.98359628	    -25.80136465	    -10.56915529	     -3.81781234	      1.93414706	      5.35057836	      5.26224052	     21.18481074	      0.00000000	      0.00350634	      0.00000000	      7.48921042	     -9.70542260	      7.20582223	     -4.21274030
      0.65416667	      0.58239822	     -5.92735890	      6.20732016	      0.03112228	      0.98404026	      0.26219539	     24.30348487	      6.32956812	     -7.48854559	    -10.04712065	     13.87717303	    -17.81941568	    -11.76739986	    -25.92860414	    -10.76130792	     -3.91746134	      1.44149740	      5.42346795	      5.21655828	     21.13108205	      0.00000000	      0.00333149	      0.00000000	      7.30804124	     -9.67798143	      7.48824407	     -4.19434478
      0.65833333	      0.45349278	     -6.05663232	      6.22571507	      0.03762977	      0.98300428	      0.26260364	     24.69528999	      6.45840494	     -7.44430655	    -10.92807427	     11.53292036	    -18.69539502	     -4.79028944	    -25.60164220	    -10.93809467	     -4.15388195	      0.19546388	      5.07894060	      5.02435095	     21.35381091	      0.00000000	      0.00294444	      0.00000000	      7.11334320	     -9.45256754	      7.69004663	     -4.18398342
      0.66250000	      0.53760755	     -6.24479489	      6.18374029	      0.04405585	      0.98234506	      0.26313268	     24.89287957	      6.71416805	     -7.32715172	    -11.94991915	     11.10520026	    -18.70518110	     -4.82090678	    -25.78593665	    -11.14982395	     -4.16495045	     -0.23161766	      5.24259854	      5.03508642	     21.20134293	      0.00000000	      0.00277544	      0.00000000	      6.87158468	     -9.49467966	      7.99067623	     -4.16599709
      0.66666667	      0.62012450	     -6.44187233	      6.14840523	      0.05046025	      0.98172887	      0.26373445	     25.07166851	      6.98359577	     -7.17924462	    -12.93573409	     10.70646207	    -18.70612811	     -4.83480229	    -25.93683965	    -11.38385786	     -4.16749531	     -0.69754032	      5.41071140	      5.06359324	     21.08886302	      0.00000000	      0.00257163	      0.00000000	      6.60911543	     -9.54118737	      8.28459413	     -4.13875768
      0.67083333	      0.49282358	     -6.69793710	      5.98482425	      0.05709817	      0.98086556	      0.26436705	     25.47675512	      7.31265638	     -7.01470757	    -13.94617565	      9.97134910	    -19.01310915	     -4.11576711	    -25.53383129	    -11.61885672	     -4.67036424	     -2.26338155	      4.91850831	      4.80017564	     21.30585551	      0.00000000	      0.00218505	      0.00000000	      6.32968189	     -9.30064866	      8.61485551	     -3.83964598
      0.67500000	      0.60081036	     -6.90160687	      5.90806068	      0.06352346	      0.98040777	      0.26505898	     25.63990735	      7.59540465	     -6.95282778	    -14.97030118	      9.58147076	    -19.06079241	     -4.09711201	    -25.68299297	    -11.84247610	     -4.68029540	     -2.78060743	      5.11642202	      4.84430907	     21.10348675	      0.00000000	      0.00199951	      0.00000000	      5.99607426	     -9.37787091	      8.89709967	     -3.83840319
      0.67916667	      0.69282317	     -7.11003916	      5.85854756	      0.06997185	      0.98003934	      0.26572188	     25.75584976	      7.88479933	     -6.78268138	    -15.90197198	      9.25405983	    -19.04344595	     -4.08640978	    -25.78293035	    -12.08790040	     -4.62558631	     -3.30628089	      5.33959088	      4.90576395	     20.98359866	      0.00000000	      0.00184568	      0.00000000	      5.66630898	     -9.44120922	      9.19699747	     -3.80590654
      0.68333333	      0.79823449	     -7.36944994	      5.70554869	      0.07654259	      0.97966097	      0.26647730	     25.89639524	      8.24151403	     -6.73511822	    -16.91596990	      8.88937122	    -19.06931098	     -4.06602260	    -25.88686402	    -12.33192507	     -4.69794289	     -3.98877206	      5.45780599	      4.93579201	     20.70722782	      0.00000000	      0.00160421	      0.00000000	      5.26522370	     -9.49471019	      9.55199667	     -3.73442626
      0.68750000	      0.89523442	     -7.65262538	      5.53936003	      0.08310820	      0.97935573	      0.26728940	     26.02390739	      8.62972909	     -6.70137906	    -17.89214741	      8.54338135	    -19.10009824	     -4.01689960	    -25.92514414	    -12.60122814	     -4.79595129	     -4.80808355	      5.51048319	      4.94299478	     20.46224131	      0.00000000	      0.00136922	      0.00000000	      4.85795878	     -9.54627360	      9.92412849	     -3.60052033
      0.69166667	      0.69442394	     -7.86507864	      5.48096830	      0.08957439	      0.97888992	      0.26805764	     26.35356288	      8.90004131	     -6.54815154	    -18.62912152	      7.79530322	    -19.62632536	     -2.88940506	    -24.72041527	    -12.95121722	     -5.50872678	     -8.13559588	      4.14365543	      4.31480787	     21.17460815	      0.00000000	      0.00143463	      0.00000000	      4.49559660	     -9.23350766	     10.13458395	     -3.28917341
      0.69583333	      0.78476381	     -8.04587353	      5.41732695	      0.09621855	      0.97883857	      0.26883958	     26.33905669	      9.17668749	     -6.38187972	    -19.38643013	      7.60778811	    -19.57584824	     -2.87649502	    -24.77319731	    -13.16856911	     -5.44540897	     -8.64365880	      4.50092967	      4.42647440	     20.97358918	      0.00000000	      0.00144209	      0.00000000	      4.12906804	     -9.24118335	     10.35440648	     -3.27129378
      0.70000000	      0.89599702	     -8.34664208	      5.12661674	      0.10279077	      0.97868608	      0.26984404	     26.42439109	      9.62810558	     -6.34031557	    -20.34707520	      7.37473900	    -19.54779797	     -2.84870429	    -24.85069070	    -13.40381588	     -5.43337511	     -9.40572479	      4.61578436	      4.54611197	     20.53369729	      0.00000000	      0.00123497	      0.00000000	      3.60073854	     -9.34875310	     10.76133949	     -3.18849594
      0.70416667	      0.88797627	     -8.62289111	      5.13444031	      0.10918414	      0.97861498	      0.27050707	     26.50085027	      9.93591576	     -6.44755045	    -21.00268353	      6.98777500	    -19.62479788	     -2.35583038	    -23.90934872	    -13.85784822	     -5.78548963	    -12.40741944	      3.48553745	      4.03406986	     20.86706634	      0.00000000	      0.00163678	      0.00000000	      3.21207941	     -9.25179788	     11.04661388	     -2.77821333
      0.70833333	      0.96512891	     -8.85897874	      4.89665690	      0.11586187	      0.97863969	      0.27148013	     26.47994582	     10.32232414	     -6.32618579	    -21.75169978	      6.91815218	    -19.59386691	     -2.30025795	    -23.90864763	    -14.05544093	     -5.79290986	    -13.13603244	      3.70727159	      4.16031403	     20.48826384	      0.00000000	      0.00161629	      0.00000000	      2.76695306	     -9.27240600	     11.34550627	     -2.77119312
      0.71250000	      0.86727640	     -9.04615411	      4.86250362	      0.12218847	      0.97856971	      0.27231899	     26.61606088	     10.56832939	     -6.30740275	    -22.39897605	      6.76419412	    -19.61212063	     -1.95367132	    -22.90215752	    -14.41405609	     -5.95771363	    -15.91657020	      2.76160084	      3.75743250	     20.69967129	      0.00000000	      0.00232304	      0.00000000	      2.34678251	     -9.08912747	     11.55017369	     -2.65714989
      0.71666667	      0.95517072	     -9.28541444	      4.60534112	      0.12883826	      0.97870611	      0.27332668	     26.53292411	     10.96901379	     -6.21513438	    -23.07205377	      6.70665519	    -19.54624947	     -1.91707524	    -22.88420951	    -14.60930686	     -5.92621430	    -16.66301597	      2.98860338	      3.91852613	     20.27309454	      0.00000000	      0.00228983	      0.00000000	      1.94313099	     -9.13181160	     11.82883386	     -2.58949589
